<?xml version="1.0" encoding="utf-8"?>
<!-- Generator: Adobe Illustrator 22.0.0, SVG Export Plug-In . SVG Version: 6.00 Build 0)  -->
<svg version="1.1" id="Warstwa_1" xmlns="http://www.w3.org/2000/svg" xmlns:xlink="http://www.w3.org/1999/xlink" x="0px" y="0px"
	 viewBox="0 0 555 95" style="enable-background:new 0 0 555 95;" xml:space="preserve">
<style type="text/css">
	.st0{fill:url(#SVGID_1_);}
	.st1{fill:#BE820E;}
</style>
<g>
	<g>
		<path d="M352.3,47.2c-2,0-3.6-0.4-4.9-1.2s-2.3-1.9-2.9-3.3c-0.6-1.4-0.9-3-0.9-4.9c0-1.8,0.3-3.4,1-4.8c0.7-1.4,1.7-2.5,3-3.3
			c1.3-0.8,2.9-1.2,4.9-1.2c1.2,0,2.3,0.1,3.1,0.4c0.8,0.2,1.4,0.6,1.9,1c0.4,0.4,0.6,0.9,0.6,1.5s-0.2,1-0.7,1.3
			c-0.5,0.3-1,0.5-1.7,0.5c0-0.5-0.1-1-0.3-1.5c-0.2-0.5-0.6-0.9-1-1.2c-0.5-0.3-1.1-0.5-2-0.5c-1.4,0-2.6,0.3-3.5,0.9
			c-0.9,0.6-1.5,1.5-1.9,2.7c-0.4,1.2-0.6,2.6-0.6,4.3c0,1.7,0.2,3.1,0.6,4.3c0.4,1.2,1.1,2.1,2,2.7s2.1,0.9,3.7,0.9
			c0.5,0,1,0,1.4-0.1c0.5-0.1,0.9-0.1,1.2-0.2v-4.1c0-0.5-0.1-0.9-0.3-1.1c-0.2-0.2-0.4-0.4-0.8-0.5c-0.3-0.1-0.7-0.1-1-0.1h-0.1
			v-1.1h6.6v1.1h-0.1c-0.3,0-0.6,0-0.9,0.1c-0.3,0.1-0.5,0.3-0.6,0.5s-0.2,0.6-0.2,1.2V46c-0.8,0.4-1.7,0.7-2.6,0.9
			C354.4,47.1,353.4,47.2,352.3,47.2z"/>
		<path d="M374.7,47.2c-1.8,0-3.3-0.4-4.5-1.2c-1.2-0.8-2.1-1.9-2.6-3.3c-0.6-1.4-0.9-3-0.9-4.9c0-1.9,0.3-3.5,0.9-4.9
			c0.6-1.4,1.5-2.5,2.7-3.2s2.7-1.2,4.5-1.2c1.7,0,3.1,0.4,4.3,1.2c1.2,0.8,2.1,1.8,2.7,3.2c0.6,1.4,0.9,3,0.9,4.9
			c0,1.9-0.3,3.5-0.9,4.9c-0.6,1.4-1.5,2.5-2.7,3.3C377.8,46.8,376.4,47.2,374.7,47.2z M374.7,45.8c1.3,0,2.3-0.3,3-0.9
			s1.3-1.5,1.6-2.7c0.3-1.2,0.5-2.6,0.5-4.3c0-1.7-0.2-3.1-0.5-4.3c-0.3-1.2-0.9-2.1-1.6-2.7c-0.8-0.6-1.7-0.9-3-0.9
			c-1.9,0-3.2,0.7-4,2.1s-1.2,3.3-1.2,5.8c0,1.7,0.2,3.1,0.5,4.3c0.3,1.2,0.9,2.1,1.6,2.7S373.4,45.8,374.7,45.8z"/>
		<path d="M390.1,47v-1.1h0.3c0.4,0,0.7,0,1-0.1c0.3-0.1,0.6-0.3,0.7-0.5c0.2-0.3,0.3-0.7,0.3-1.2V31.8c0-0.5-0.1-0.9-0.3-1.2
			s-0.4-0.4-0.7-0.5c-0.3-0.1-0.7-0.1-1-0.1h-0.3v-1.1h7.4V30h-0.3c-0.4,0-0.7,0-1,0.1c-0.3,0.1-0.6,0.2-0.8,0.5
			c-0.2,0.2-0.3,0.6-0.3,1.1v14h5c0.5,0,0.9-0.1,1.2-0.3c0.3-0.2,0.5-0.5,0.7-0.9c0.2-0.4,0.3-0.7,0.3-1.1l0.3-1.9h1.3l-0.2,5.4
			H390.1z"/>
		<path d="M410.9,47v-1.1h0.3c0.4,0,0.7,0,1-0.1c0.3-0.1,0.6-0.3,0.7-0.5c0.2-0.3,0.3-0.7,0.3-1.2V31.7c0-0.5-0.1-0.9-0.3-1.1
			c-0.2-0.2-0.4-0.4-0.8-0.5c-0.3-0.1-0.7-0.1-1-0.1h-0.3v-1.1h7.7c1.7,0,3.2,0.4,4.5,1c1.2,0.7,2.2,1.7,2.8,3.1c0.6,1.3,1,3,1,4.9
			c0,1.8-0.3,3.4-0.9,4.8c-0.6,1.4-1.5,2.4-2.7,3.1c-1.2,0.7-2.7,1.1-4.6,1.1H410.9z M418.1,45.7c1.3,0,2.5-0.3,3.4-0.9
			c0.9-0.6,1.6-1.5,2-2.6c0.4-1.2,0.7-2.6,0.7-4.2c0-1.7-0.2-3.1-0.7-4.2c-0.4-1.1-1.1-2-2-2.6c-0.9-0.6-2-0.9-3.3-0.9h-2.2v15.5
			H418.1z"/>
		<path d="M343.2,77.3v-1.1h0.3c0.4,0,0.7,0,1-0.1c0.3-0.1,0.6-0.3,0.7-0.5s0.3-0.7,0.3-1.2V62.1c0-0.5-0.1-0.9-0.3-1.2
			s-0.4-0.4-0.7-0.5c-0.3-0.1-0.7-0.1-1-0.1h-0.3v-1.1h7.4v1.1h-0.3c-0.4,0-0.7,0-1,0.1c-0.3,0.1-0.6,0.3-0.8,0.5s-0.3,0.6-0.3,1.2
			v12.3c0,0.5,0.1,0.9,0.3,1.2s0.4,0.4,0.8,0.5c0.3,0.1,0.7,0.1,1,0.1h0.3v1.1H343.2z"/>
		<path d="M357.5,77.3v-1.1h0.3c0.4,0,0.7,0,1-0.1c0.3-0.1,0.6-0.3,0.7-0.5c0.2-0.3,0.3-0.7,0.3-1.2V62c0-0.5-0.1-0.9-0.3-1.1
			c-0.2-0.2-0.4-0.4-0.8-0.5c-0.3-0.1-0.7-0.1-1-0.1h-0.3v-1.1h4.6l9.1,14V62c0-0.5-0.1-0.9-0.3-1.1c-0.2-0.2-0.4-0.4-0.8-0.5
			c-0.3-0.1-0.7-0.1-1-0.1h-0.3v-1.1h6.3v1.1h-0.3c-0.4,0-0.7,0-1,0.1c-0.3,0.1-0.6,0.3-0.8,0.5s-0.3,0.6-0.3,1.2v15.2h-1.8
			l-9.5-14.6v11.7c0,0.5,0.1,0.9,0.3,1.2s0.4,0.4,0.8,0.5c0.3,0.1,0.7,0.1,1,0.1h0.3v1.1H357.5z"/>
		<path d="M387.1,77.6c-0.8,0-1.6-0.1-2.2-0.3c-0.6-0.2-1.2-0.4-1.6-0.7c-0.4-0.3-0.7-0.7-0.9-1.1c-0.2-0.4-0.3-0.9-0.3-1.4
			c0-0.3,0.1-0.6,0.2-0.9s0.3-0.5,0.6-0.6c0.3-0.1,0.6-0.2,1-0.2c0,0.7,0.2,1.3,0.4,2c0.2,0.6,0.6,1.1,1.1,1.5
			c0.5,0.4,1.1,0.6,1.9,0.6c1.1,0,2-0.3,2.7-0.8c0.6-0.5,1-1.3,1-2.4c0-0.6-0.1-1.2-0.4-1.6c-0.2-0.4-0.6-0.8-1.2-1.2
			c-0.6-0.4-1.3-0.8-2.3-1.2c-1-0.4-1.9-0.9-2.6-1.4c-0.7-0.5-1.2-1.1-1.5-1.8c-0.3-0.7-0.5-1.5-0.5-2.4c0-1,0.2-1.8,0.7-2.5
			c0.5-0.7,1.1-1.2,2-1.6s1.8-0.5,2.8-0.5c1,0,1.9,0.1,2.6,0.4c0.7,0.3,1.2,0.6,1.6,1c0.4,0.4,0.6,0.9,0.6,1.4
			c0,0.5-0.2,0.9-0.5,1.2c-0.4,0.3-0.8,0.4-1.5,0.4c0-0.5-0.1-1-0.3-1.5c-0.2-0.5-0.5-0.9-0.9-1.2c-0.4-0.3-1-0.5-1.7-0.5
			c-1,0-1.7,0.3-2.3,0.8c-0.5,0.5-0.8,1.2-0.8,2.1c0,0.7,0.1,1.2,0.4,1.7c0.2,0.5,0.7,0.9,1.2,1.2s1.3,0.7,2.3,1.2
			c1,0.4,1.8,0.8,2.5,1.3c0.7,0.5,1.2,1,1.6,1.7s0.6,1.4,0.6,2.3c0,1.1-0.3,2-0.8,2.7c-0.5,0.8-1.2,1.3-2.2,1.7
			C389.5,77.4,388.4,77.6,387.1,77.6z"/>
		<path d="M400.7,77.3v-1.1h0.3c0.4,0,0.7,0,1-0.1c0.3-0.1,0.6-0.3,0.7-0.5s0.3-0.7,0.3-1.2V62c0-0.5-0.1-0.9-0.3-1.1
			c-0.2-0.2-0.4-0.4-0.8-0.5c-0.3-0.1-0.7-0.1-1-0.1h-0.3v-1.1h7.1c2.1,0,3.7,0.5,4.7,1.4c1,0.9,1.5,2.2,1.5,3.9
			c0,0.8-0.1,1.5-0.4,2.2c-0.2,0.7-0.6,1.3-1.2,1.8c-0.5,0.5-1.2,1-2.1,1.3c-0.9,0.3-1.9,0.5-3.2,0.5h-1.6v4.3
			c0,0.5,0.1,0.9,0.3,1.1c0.2,0.2,0.4,0.4,0.8,0.5c0.3,0.1,0.7,0.1,1,0.1h0.8v1.1H400.7z M407,69.1c0.8,0,1.4-0.1,2-0.2
			s1-0.4,1.3-0.8c0.3-0.4,0.6-0.8,0.8-1.4c0.2-0.6,0.2-1.3,0.2-2.1c0-1.4-0.3-2.5-0.9-3.1c-0.6-0.7-1.6-1-3-1h-1.7v8.6H407z"/>
		<path d="M421,77.3v-1.1h0.3c0.4,0,0.7,0,1-0.1c0.3-0.1,0.6-0.3,0.7-0.5c0.2-0.3,0.3-0.7,0.3-1.2V62.1c0-0.5-0.1-0.9-0.3-1.2
			c-0.2-0.3-0.4-0.4-0.7-0.5c-0.3-0.1-0.7-0.1-1-0.1H421v-1.1h7.4v1.1H428c-0.4,0-0.7,0-1,0.1c-0.3,0.1-0.6,0.3-0.8,0.5
			c-0.2,0.3-0.3,0.6-0.3,1.2v12.3c0,0.5,0.1,0.9,0.3,1.2c0.2,0.3,0.4,0.4,0.8,0.5c0.3,0.1,0.7,0.1,1,0.1h0.3v1.1H421z"/>
		<path d="M435.3,77.3v-1.1h0.3c0.4,0,0.7,0,1-0.1c0.3-0.1,0.6-0.2,0.8-0.5c0.2-0.2,0.3-0.6,0.3-1.1V62c0-0.5-0.1-0.9-0.3-1.1
			c-0.2-0.2-0.4-0.4-0.8-0.5c-0.3-0.1-0.7-0.1-1-0.1h-0.3v-1.1h6.8c1.5,0,2.7,0.2,3.6,0.5s1.7,0.9,2.1,1.6c0.5,0.7,0.7,1.6,0.7,2.7
			c0,0.9-0.2,1.6-0.6,2.3s-0.8,1.1-1.4,1.5c-0.6,0.4-1.2,0.7-1.8,0.9l3.5,5.5c0.4,0.7,0.9,1.2,1.3,1.5c0.4,0.3,0.9,0.5,1.4,0.5h0.1
			v1.1h-0.4c-1,0-1.9-0.1-2.4-0.2c-0.6-0.1-1-0.3-1.4-0.7s-0.7-0.8-1.1-1.5l-3.4-5.7h-2.1v5.2c0,0.5,0.1,0.9,0.3,1.1
			c0.2,0.2,0.4,0.4,0.8,0.5c0.3,0.1,0.7,0.1,1,0.1h0.3v1.1H435.3z M442.1,68.1c1.5,0,2.5-0.3,3-1c0.5-0.7,0.8-1.6,0.8-3
			c0-0.9-0.1-1.6-0.4-2.2s-0.7-0.9-1.2-1.2c-0.6-0.2-1.3-0.4-2.3-0.4h-1.7v7.7H442.1z"/>
		<path d="M456,77.3v-1.1h0.5c0.3,0,0.6-0.1,0.8-0.2c0.2-0.1,0.4-0.3,0.6-0.6c0.2-0.3,0.4-0.7,0.6-1.2l5.6-15h2l5.7,15.7
			c0.1,0.4,0.3,0.6,0.4,0.8c0.2,0.2,0.3,0.3,0.6,0.4c0.2,0.1,0.5,0.1,0.8,0.1h0.3v1.1h-7v-1.1h0.6c0.5,0,0.9-0.1,1.1-0.3
			c0.3-0.2,0.4-0.5,0.4-0.9c0-0.1,0-0.2,0-0.3c0-0.1,0-0.2-0.1-0.3s-0.1-0.2-0.1-0.3l-1-2.8h-6.7l-1,2.7c-0.1,0.1-0.1,0.3-0.1,0.4
			c0,0.1-0.1,0.3-0.1,0.4c0,0.1,0,0.2,0,0.3c0,0.4,0.1,0.7,0.4,0.9c0.3,0.2,0.7,0.3,1.3,0.3h0.6v1.1H456z M461.6,70h5.7l-1.6-4.4
			c-0.2-0.5-0.3-1-0.5-1.4s-0.3-0.9-0.4-1.3c-0.1-0.4-0.2-0.8-0.3-1.2c-0.1,0.4-0.2,0.8-0.3,1.2c-0.1,0.4-0.2,0.8-0.4,1.2
			s-0.3,0.9-0.5,1.4L461.6,70z"/>
		<path d="M481.2,77.3v-1.1h0.6c0.4,0,0.7,0,1-0.1c0.3-0.1,0.6-0.2,0.8-0.5c0.2-0.2,0.3-0.6,0.3-1.1v-14h-2.4
			c-0.7,0-1.3,0.2-1.5,0.6c-0.3,0.4-0.5,0.9-0.5,1.5l-0.1,1.1h-1.3l0.1-4.4h14.2l0.1,4.4h-1.3l-0.1-1.1c-0.1-0.6-0.2-1-0.5-1.5
			c-0.3-0.4-0.8-0.6-1.6-0.6h-2.5v13.9c0,0.5,0.1,0.9,0.3,1.2s0.4,0.4,0.8,0.5c0.3,0.1,0.7,0.1,1,0.1h0.6v1.1H481.2z"/>
		<path d="M498.9,77.3v-1.1h0.3c0.4,0,0.7,0,1-0.1c0.3-0.1,0.6-0.3,0.7-0.5s0.3-0.7,0.3-1.2V62.1c0-0.5-0.1-0.9-0.3-1.2
			s-0.4-0.4-0.7-0.5c-0.3-0.1-0.7-0.1-1-0.1h-0.3v-1.1h7.4v1.1h-0.3c-0.4,0-0.7,0-1,0.1c-0.3,0.1-0.6,0.3-0.8,0.5s-0.3,0.6-0.3,1.2
			v12.3c0,0.5,0.1,0.9,0.3,1.2s0.4,0.4,0.8,0.5c0.3,0.1,0.7,0.1,1,0.1h0.3v1.1H498.9z"/>
		<path d="M521.7,77.6c-1.8,0-3.3-0.4-4.5-1.2c-1.2-0.8-2.1-1.9-2.6-3.3c-0.6-1.4-0.9-3-0.9-4.9s0.3-3.5,0.9-4.9
			c0.6-1.4,1.5-2.5,2.7-3.2c1.2-0.8,2.7-1.2,4.5-1.2c1.7,0,3.1,0.4,4.3,1.2c1.2,0.8,2.1,1.8,2.7,3.2c0.6,1.4,0.9,3,0.9,4.9
			s-0.3,3.5-0.9,4.9c-0.6,1.4-1.5,2.5-2.7,3.3C524.8,77.2,523.4,77.6,521.7,77.6z M521.7,76.2c1.3,0,2.3-0.3,3-0.9
			c0.8-0.6,1.3-1.5,1.6-2.7c0.3-1.2,0.5-2.6,0.5-4.3s-0.2-3.1-0.5-4.3c-0.3-1.2-0.9-2.1-1.6-2.7s-1.7-0.9-3-0.9
			c-1.9,0-3.2,0.7-4,2.1c-0.8,1.4-1.2,3.3-1.2,5.8c0,1.7,0.2,3.1,0.5,4.3c0.3,1.2,0.9,2.1,1.6,2.7C519.4,75.9,520.4,76.2,521.7,76.2
			z"/>
		<path d="M537.1,77.3v-1.1h0.3c0.4,0,0.7,0,1-0.1c0.3-0.1,0.6-0.3,0.7-0.5s0.3-0.7,0.3-1.2V62c0-0.5-0.1-0.9-0.3-1.1
			c-0.2-0.2-0.4-0.4-0.8-0.5c-0.3-0.1-0.7-0.1-1-0.1h-0.3v-1.1h4.6l9.1,14V62c0-0.5-0.1-0.9-0.3-1.1c-0.2-0.2-0.4-0.4-0.8-0.5
			c-0.3-0.1-0.7-0.1-1-0.1h-0.3v-1.1h6.3v1.1h-0.3c-0.4,0-0.7,0-1,0.1c-0.3,0.1-0.6,0.3-0.8,0.5s-0.3,0.6-0.3,1.2v15.2h-1.8
			L541,62.7v11.7c0,0.5,0.1,0.9,0.3,1.2s0.4,0.4,0.8,0.5c0.3,0.1,0.7,0.1,1,0.1h0.3v1.1H537.1z"/>
	</g>
	<linearGradient id="SVGID_1_" gradientUnits="userSpaceOnUse" x1="0.3087" y1="47.585" x2="276.688" y2="47.585">
		<stop  offset="0" style="stop-color:#DEB262"/>
		<stop  offset="0.2538" style="stop-color:#D8A652"/>
		<stop  offset="0.5955" style="stop-color:#BC6D05"/>
		<stop  offset="0.8507" style="stop-color:#E6B461"/>
		<stop  offset="0.8708" style="stop-color:#E9BA68"/>
		<stop  offset="1" style="stop-color:#ED9D45"/>
	</linearGradient>
	<path class="st0" d="M56.6,68.9L32.7,7.2h-1.6L8,66.6c-1.1,2.9-2.3,5-3.7,6.2c-1.4,1.2-2.7,2-4,2.3v2c1-0.1,2-0.2,3.2-0.2
		c1.1,0,2.5,0,4.2,0c1.7,0,3.5,0,5.5,0c2,0,3.9,0.1,5.7,0.2v-2c-2.8-0.1-4.8-0.5-6.3-1.4c-1.4-0.9-2.2-2.3-2.2-4.3
		c-0.1-2,0.6-4.7,2-8.3l4-10.4h23.7l6,16.1c1.3,3.3,1.5,5.5,0.6,6.5c-0.9,1-3,1.6-6.4,1.7v2c1.4-0.1,3.2-0.2,5.4-0.2
		c2.2,0,4.6,0,7.1,0c1.9,0,3.8,0,5.7,0c1.9,0,3.5,0.1,4.8,0.2v-2c-1-0.1-2.2-0.5-3.4-1.3C58.7,73,57.6,71.4,56.6,68.9z M17.1,48.9
		l11.3-29.3l10.9,29.3H17.1z M96.9,25.3c-4.5,0-8.4,1.5-11.6,4.6c-1.7,1.6-3.1,3.6-4.1,5.9V25.6c-1.4,0.5-3,0.8-4.8,1
		c-1.7,0.2-3.5,0.3-5.4,0.3c-1.9,0-4-0.1-6.1-0.3v2.1c2.9,0,4.8,0.7,5.9,2.1c1,1.4,1.6,3.6,1.6,6.5v49.4c0,2.3-0.5,4-1.5,4.8
		c-1,0.9-2.6,1.3-5,1.3v2.1c1-0.1,2.6-0.2,4.6-0.2c2-0.1,4-0.2,6-0.2c2.9,0,5.6,0.1,8.1,0.2c2.6,0.1,4.5,0.2,6,0.2v-2.1
		c-2.9,0-5.3-0.5-6.9-1.4c-1.7-0.9-2.5-2.8-2.5-5.6V73.2c0.8,1.2,2,2.3,3.5,3.2c2.3,1.4,4.9,2.2,8,2.2c5.4,0,9.7-1.4,12.9-4.3
		c3.3-2.8,5.7-6.5,7.2-10.9c1.5-4.4,2.3-9,2.3-13.7c0-7.9-1.8-13.9-5.3-18.1C106.4,27.4,102,25.3,96.9,25.3z M104.4,63.7
		c-0.8,3.8-2.2,6.9-4.3,9.2c-2,2.3-4.9,3.4-8.5,3.4c-2.6,0-4.8-0.6-6.5-1.9c-1.7-1.2-3-2.7-3.9-4.4V40.6c0.9-3.6,2.3-6.4,4.3-8.4
		c2.6-2.6,5.5-4,8.7-4c2.5,0,4.6,0.8,6.3,2.5c1.7,1.6,3,4.1,3.8,7.4c0.9,3.3,1.3,7.6,1.3,12.8C105.6,55.6,105.2,59.8,104.4,63.7z
		 M157.9,28c-3.3-1.8-7.1-2.7-11.3-2.7c-4.1,0-7.9,0.9-11.2,2.7c-3.4,1.8-6,4.7-8,8.6c-2,3.9-3,9-3,15.3c0,6.3,1,11.4,3,15.3
		c2,3.9,4.7,6.7,8,8.6c3.4,1.8,7.1,2.7,11.2,2.7c4.2,0,7.9-0.9,11.3-2.7s6-4.7,8-8.6c2-3.9,3-9,3-15.3c0-6.3-1-11.4-3-15.3
		C163.9,32.7,161.2,29.9,157.9,28z M155.8,70.8c-2.4,3.8-5.4,5.7-9.2,5.7c-3.7,0-6.8-1.9-9.2-5.7c-2.4-3.8-3.6-10.1-3.6-18.9
		c0-8.8,1.2-15.1,3.6-18.9c2.4-3.9,5.4-5.8,9.2-5.8c3.7,0,6.8,1.9,9.2,5.8c2.4,3.9,3.6,10.2,3.6,18.9
		C159.3,60.7,158.1,67,155.8,70.8z M273.7,36.7c-2-3.9-4.7-6.8-8-8.6c-3.3-1.8-7.1-2.7-11.3-2.7c-4.1,0-7.9,0.9-11.2,2.7
		c-3.4,1.8-6.1,4.7-8,8.6c-2,3.9-3,9-3,15.3c0,6.3,1,11.4,3,15.3c2,3.9,4.7,6.7,8,8.6c3.4,1.8,7.1,2.7,11.2,2.7
		c4.2,0,7.9-0.9,11.3-2.7c3.3-1.8,6-4.7,8-8.6c2-3.9,3-9,3-15.3C276.7,45.7,275.7,40.6,273.7,36.7z M263.6,70.8
		c-2.4,3.8-5.4,5.7-9.2,5.7c-3.7,0-6.8-1.9-9.2-5.7c-2.4-3.8-3.6-10.1-3.6-18.9c0-8.8,1.2-15.1,3.6-18.9c2.4-3.9,5.4-5.8,9.2-5.8
		c3.7,0,6.8,1.9,9.2,5.8c2.4,3.9,3.6,10.2,3.6,18.9C267.2,60.7,266,67,263.6,70.8z M192.6,73.6c1.1,1,3.1,1.5,5.7,1.5v2.1
		c-1.1-0.1-2.8-0.2-5-0.2c-2.2-0.1-4.5-0.1-6.8-0.1c-2.2,0-4.5,0-6.8,0.1c-2.3,0.1-4,0.2-5.1,0.2v-2.1c2.7,0,4.6-0.5,5.7-1.5
		c1.1-1,1.7-2.8,1.7-5.6l0-63.8c0-0.4-0.3-0.8-0.8-0.8h-5.5v0c0,0,0,0,0,0v64.1h-1.1V2h0V1.4c2.1,0.2,4.1,0.3,6.1,0.3
		c1.9,0,3.7-0.1,5.4-0.3c1.7-0.2,3.3-0.6,4.8-1V68C190.9,70.8,191.5,72.6,192.6,73.6z M220.7,73.6c1.1,1,3.1,1.5,5.7,1.5v2.1
		c-1.1-0.1-2.8-0.2-5-0.2c-2.2-0.1-4.5-0.1-6.8-0.1c-2.2,0-4.5,0-6.8,0.1c-2.3,0.1-4,0.2-5.1,0.2v-2.1c2.7,0,4.6-0.5,5.7-1.5
		c1.1-1,1.7-2.8,1.7-5.6l0-63.8c0-0.4-0.3-0.8-0.8-0.8h-5.5v0c0,0,0,0,0,0v64.1h-1.1V2h0V1.4c2.1,0.2,4.1,0.3,6.1,0.3
		c1.9,0,3.7-0.1,5.4-0.3c1.7-0.2,3.3-0.6,4.8-1V68C218.9,70.8,219.5,72.6,220.7,73.6z"/>
	<rect x="310.8" y="0.1" class="st1" width="4.8" height="77"/>
</g>
<g>
</g>
<g>
</g>
<g>
</g>
<g>
</g>
<g>
</g>
<g>
</g>
<g>
</g>
<g>
</g>
<g>
</g>
<g>
</g>
<g>
</g>
<g>
</g>
<g>
</g>
<g>
</g>
<g>
</g>
</svg>
